<mxfile host="app.diagrams.net" modified="2021-06-05T23:14:33.472Z" agent="5.0 (Windows NT 10.0; Win64; x64) AppleWebKit/537.36 (KHTML, like Gecko) Chrome/91.0.4472.77 Safari/537.36" etag="fqbW8kTr8utNiSbZ0MpP" version="14.7.2" type="github">
  <diagram id="Ek7FCcccKqossJ2SFfHG" name="Page-1">
    <mxGraphModel dx="1038" dy="592" grid="1" gridSize="10" guides="1" tooltips="1" connect="1" arrows="1" fold="1" page="1" pageScale="1" pageWidth="850" pageHeight="1100" math="0" shadow="0">
      <root>
        <mxCell id="0" />
        <mxCell id="1" parent="0" />
        <mxCell id="rwt07ugf8TW4-gDHE261-2" value="System operacyjny&amp;nbsp; &amp;nbsp; &amp;nbsp; jednostki fizycznej" style="rounded=0;whiteSpace=wrap;html=1;fontStyle=1;fontSize=15;fillColor=#f8cecc;strokeWidth=2;strokeColor=#853D3A;verticalAlign=top;" vertex="1" parent="1">
          <mxGeometry x="120" y="490" width="600" height="90" as="geometry" />
        </mxCell>
        <mxCell id="rwt07ugf8TW4-gDHE261-42" value="&lt;b style=&quot;font-size: 15px;&quot;&gt;Maszyna wirtualna nr 3&lt;br style=&quot;font-size: 15px;&quot;&gt;&lt;/b&gt;" style="rounded=0;whiteSpace=wrap;html=1;fontSize=15;strokeWidth=2;horizontal=1;align=center;verticalAlign=top;" vertex="1" parent="1">
          <mxGeometry x="518" y="230" width="200" height="260" as="geometry" />
        </mxCell>
        <mxCell id="rwt07ugf8TW4-gDHE261-41" value="&lt;b style=&quot;font-size: 15px;&quot;&gt;Maszyna wirtualna nr 2&lt;br style=&quot;font-size: 15px;&quot;&gt;&lt;/b&gt;" style="rounded=0;whiteSpace=wrap;html=1;fontSize=15;strokeWidth=2;horizontal=1;align=center;verticalAlign=top;" vertex="1" parent="1">
          <mxGeometry x="321" y="230" width="196" height="260" as="geometry" />
        </mxCell>
        <mxCell id="rwt07ugf8TW4-gDHE261-18" value="&lt;b style=&quot;font-size: 15px;&quot;&gt;Maszyna wirtualna nr 1&lt;br style=&quot;font-size: 15px;&quot;&gt;&lt;/b&gt;" style="rounded=0;whiteSpace=wrap;html=1;fontSize=15;strokeWidth=2;horizontal=1;align=center;verticalAlign=top;" vertex="1" parent="1">
          <mxGeometry x="120" y="230" width="200" height="260" as="geometry" />
        </mxCell>
        <mxCell id="rwt07ugf8TW4-gDHE261-1" value="Zasoby sprzętowe jednostki fizycznej" style="rounded=0;whiteSpace=wrap;html=1;fontStyle=1;fontSize=15;fillColor=#e1d5e7;strokeWidth=2;strokeColor=#6F557A;" vertex="1" parent="1">
          <mxGeometry x="120" y="600" width="600" height="40" as="geometry" />
        </mxCell>
        <mxCell id="rwt07ugf8TW4-gDHE261-3" value="Hyperwizor" style="rounded=0;whiteSpace=wrap;html=1;fontStyle=1;fontSize=15;fillColor=#d5e8d4;strokeWidth=2;strokeColor=#517040;" vertex="1" parent="1">
          <mxGeometry x="140" y="520" width="560" height="49" as="geometry" />
        </mxCell>
        <mxCell id="rwt07ugf8TW4-gDHE261-4" value="System operacyjny maszyny wirtualnej nr 1" style="rounded=0;whiteSpace=wrap;html=1;fontStyle=1;fontSize=15;fillColor=#fff2cc;strokeColor=#FF8000;strokeWidth=2;verticalAlign=bottom;" vertex="1" parent="1">
          <mxGeometry x="120" y="320" width="200" height="92" as="geometry" />
        </mxCell>
        <mxCell id="rwt07ugf8TW4-gDHE261-5" value="&lt;span style=&quot;font-size: 15px; font-weight: 700;&quot;&gt;System operacyjny maszyny wirtualnej nr 2&lt;/span&gt;" style="rounded=0;whiteSpace=wrap;html=1;fillColor=#EDF797;strokeColor=#CCCC29;strokeWidth=2;verticalAlign=bottom;fontSize=15;" vertex="1" parent="1">
          <mxGeometry x="322" y="320" width="194" height="92" as="geometry" />
        </mxCell>
        <mxCell id="rwt07ugf8TW4-gDHE261-6" value="&lt;span style=&quot;font-size: 15px; font-weight: 700;&quot;&gt;System operacyjny maszyny wirtualnej nr 3&lt;/span&gt;" style="rounded=0;whiteSpace=wrap;html=1;fillColor=#C7F9FF;strokeColor=#00B8B8;strokeWidth=2;verticalAlign=bottom;fontSize=15;" vertex="1" parent="1">
          <mxGeometry x="518" y="320" width="200" height="92" as="geometry" />
        </mxCell>
        <mxCell id="rwt07ugf8TW4-gDHE261-7" value="&lt;font style=&quot;font-size: 15px;&quot;&gt;&lt;b style=&quot;font-size: 15px;&quot;&gt;Biblioteki / Pakiety&lt;br style=&quot;font-size: 15px;&quot;&gt;Pliki binarne&lt;/b&gt;&lt;/font&gt;" style="rounded=0;whiteSpace=wrap;html=1;fillColor=#fff2cc;strokeColor=#FF8000;strokeWidth=2;verticalAlign=middle;fontSize=15;" vertex="1" parent="1">
          <mxGeometry x="145" y="330" width="150" height="40" as="geometry" />
        </mxCell>
        <mxCell id="rwt07ugf8TW4-gDHE261-8" value="&lt;b style=&quot;font-size: 15px;&quot;&gt;Biblioteki / Pakiety&lt;br style=&quot;font-size: 15px;&quot;&gt;Pliki binarne&lt;/b&gt;" style="rounded=0;whiteSpace=wrap;html=1;fillColor=#EDF797;strokeColor=#CCCC29;strokeWidth=2;fontSize=15;" vertex="1" parent="1">
          <mxGeometry x="343.5" y="330" width="150" height="40" as="geometry" />
        </mxCell>
        <mxCell id="rwt07ugf8TW4-gDHE261-9" value="&lt;b style=&quot;font-size: 15px;&quot;&gt;Biblioteki / Pakiety&lt;br style=&quot;font-size: 15px;&quot;&gt;Pliki binarne&lt;/b&gt;" style="rounded=0;whiteSpace=wrap;html=1;fillColor=#C7F9FF;strokeColor=#00B8B8;strokeWidth=2;fontSize=15;" vertex="1" parent="1">
          <mxGeometry x="543" y="330" width="150" height="40" as="geometry" />
        </mxCell>
        <mxCell id="rwt07ugf8TW4-gDHE261-10" value="Aplikacja nr 1" style="rounded=0;whiteSpace=wrap;html=1;fontStyle=1;fontSize=15;fillColor=#fff2cc;strokeColor=#FF8000;strokeWidth=2;" vertex="1" parent="1">
          <mxGeometry x="120" y="260" width="200" height="30" as="geometry" />
        </mxCell>
        <mxCell id="rwt07ugf8TW4-gDHE261-11" value="&lt;span style=&quot;font-size: 15px; font-weight: 700;&quot;&gt;Aplikacja nr 2&lt;/span&gt;" style="rounded=0;whiteSpace=wrap;html=1;fillColor=#EDF797;strokeColor=#CCCC29;strokeWidth=2;fontSize=15;" vertex="1" parent="1">
          <mxGeometry x="322" y="260" width="194" height="30" as="geometry" />
        </mxCell>
        <mxCell id="rwt07ugf8TW4-gDHE261-12" value="&lt;span style=&quot;font-size: 15px; font-weight: 700;&quot;&gt;Aplikacja nr 3&lt;/span&gt;" style="rounded=0;whiteSpace=wrap;html=1;fillColor=#C7F9FF;strokeColor=#00B8B8;strokeWidth=2;fontSize=15;" vertex="1" parent="1">
          <mxGeometry x="518" y="260" width="200" height="30" as="geometry" />
        </mxCell>
        <mxCell id="rwt07ugf8TW4-gDHE261-22" value="" style="endArrow=classic;startArrow=classic;html=1;fontSize=16;strokeWidth=2;" edge="1" parent="1">
          <mxGeometry width="50" height="50" relative="1" as="geometry">
            <mxPoint x="441" y="601" as="sourcePoint" />
            <mxPoint x="441" y="570" as="targetPoint" />
          </mxGeometry>
        </mxCell>
        <mxCell id="rwt07ugf8TW4-gDHE261-23" value="" style="endArrow=classic;startArrow=classic;html=1;fontSize=16;strokeWidth=2;" edge="1" parent="1">
          <mxGeometry width="50" height="50" relative="1" as="geometry">
            <mxPoint x="400" y="600" as="sourcePoint" />
            <mxPoint x="400" y="570" as="targetPoint" />
          </mxGeometry>
        </mxCell>
        <mxCell id="rwt07ugf8TW4-gDHE261-25" value="Wirtualne zasoby sprzętowe maszyny nr 1" style="rounded=0;whiteSpace=wrap;html=1;fontStyle=1;fontSize=15;fillColor=#fff2cc;strokeColor=#FF8000;strokeWidth=2;" vertex="1" parent="1">
          <mxGeometry x="120" y="440" width="200" height="48" as="geometry" />
        </mxCell>
        <mxCell id="rwt07ugf8TW4-gDHE261-26" value="&lt;span style=&quot;font-size: 15px; font-weight: 700;&quot;&gt;Wirtualne zasoby sprzętowe maszyny nr 2&lt;/span&gt;" style="rounded=0;whiteSpace=wrap;html=1;fillColor=#EDF797;strokeColor=#CCCC29;strokeWidth=2;fontSize=15;" vertex="1" parent="1">
          <mxGeometry x="322" y="440" width="196" height="48" as="geometry" />
        </mxCell>
        <mxCell id="rwt07ugf8TW4-gDHE261-27" value="&lt;span style=&quot;font-size: 15px; font-weight: 700;&quot;&gt;Wirtualne zasoby sprzętowe maszyny nr 3&lt;/span&gt;" style="rounded=0;whiteSpace=wrap;html=1;fillColor=#C7F9FF;strokeColor=#00B8B8;strokeWidth=2;fontSize=15;" vertex="1" parent="1">
          <mxGeometry x="520" y="440" width="200" height="48" as="geometry" />
        </mxCell>
        <mxCell id="rwt07ugf8TW4-gDHE261-29" value="" style="endArrow=classic;startArrow=classic;html=1;fontSize=16;strokeWidth=2;" edge="1" parent="1">
          <mxGeometry width="50" height="50" relative="1" as="geometry">
            <mxPoint x="200" y="440" as="sourcePoint" />
            <mxPoint x="200" y="412" as="targetPoint" />
          </mxGeometry>
        </mxCell>
        <mxCell id="rwt07ugf8TW4-gDHE261-30" value="" style="endArrow=classic;startArrow=classic;html=1;fontSize=16;strokeWidth=2;" edge="1" parent="1">
          <mxGeometry width="50" height="50" relative="1" as="geometry">
            <mxPoint x="240" y="440.0000000000001" as="sourcePoint" />
            <mxPoint x="240" y="412" as="targetPoint" />
          </mxGeometry>
        </mxCell>
        <mxCell id="rwt07ugf8TW4-gDHE261-31" value="" style="endArrow=classic;startArrow=classic;html=1;fontSize=16;strokeWidth=2;" edge="1" parent="1">
          <mxGeometry width="50" height="50" relative="1" as="geometry">
            <mxPoint x="400" y="440.0000000000001" as="sourcePoint" />
            <mxPoint x="400" y="412" as="targetPoint" />
          </mxGeometry>
        </mxCell>
        <mxCell id="rwt07ugf8TW4-gDHE261-32" value="" style="endArrow=classic;startArrow=classic;html=1;fontSize=16;strokeWidth=2;" edge="1" parent="1">
          <mxGeometry width="50" height="50" relative="1" as="geometry">
            <mxPoint x="440" y="440.0000000000001" as="sourcePoint" />
            <mxPoint x="440" y="412" as="targetPoint" />
          </mxGeometry>
        </mxCell>
        <mxCell id="rwt07ugf8TW4-gDHE261-33" value="" style="endArrow=classic;startArrow=classic;html=1;fontSize=16;strokeWidth=2;" edge="1" parent="1">
          <mxGeometry width="50" height="50" relative="1" as="geometry">
            <mxPoint x="600" y="440.0000000000001" as="sourcePoint" />
            <mxPoint x="600" y="412" as="targetPoint" />
          </mxGeometry>
        </mxCell>
        <mxCell id="rwt07ugf8TW4-gDHE261-34" value="" style="endArrow=classic;startArrow=classic;html=1;fontSize=16;strokeWidth=2;" edge="1" parent="1">
          <mxGeometry width="50" height="50" relative="1" as="geometry">
            <mxPoint x="640" y="440.0000000000001" as="sourcePoint" />
            <mxPoint x="640" y="412" as="targetPoint" />
          </mxGeometry>
        </mxCell>
        <mxCell id="rwt07ugf8TW4-gDHE261-35" value="" style="endArrow=classic;startArrow=classic;html=1;fontSize=16;strokeWidth=2;" edge="1" parent="1">
          <mxGeometry width="50" height="50" relative="1" as="geometry">
            <mxPoint x="200" y="319.0000000000001" as="sourcePoint" />
            <mxPoint x="200" y="291" as="targetPoint" />
          </mxGeometry>
        </mxCell>
        <mxCell id="rwt07ugf8TW4-gDHE261-36" value="" style="endArrow=classic;startArrow=classic;html=1;fontSize=16;strokeWidth=2;" edge="1" parent="1">
          <mxGeometry width="50" height="50" relative="1" as="geometry">
            <mxPoint x="240" y="319.0000000000001" as="sourcePoint" />
            <mxPoint x="240" y="291" as="targetPoint" />
          </mxGeometry>
        </mxCell>
        <mxCell id="rwt07ugf8TW4-gDHE261-37" value="" style="endArrow=classic;startArrow=classic;html=1;fontSize=16;strokeWidth=2;" edge="1" parent="1">
          <mxGeometry width="50" height="50" relative="1" as="geometry">
            <mxPoint x="400" y="319.0000000000001" as="sourcePoint" />
            <mxPoint x="400" y="291" as="targetPoint" />
          </mxGeometry>
        </mxCell>
        <mxCell id="rwt07ugf8TW4-gDHE261-38" value="" style="endArrow=classic;startArrow=classic;html=1;fontSize=16;strokeWidth=2;" edge="1" parent="1">
          <mxGeometry width="50" height="50" relative="1" as="geometry">
            <mxPoint x="440" y="319.0000000000001" as="sourcePoint" />
            <mxPoint x="440" y="291" as="targetPoint" />
          </mxGeometry>
        </mxCell>
        <mxCell id="rwt07ugf8TW4-gDHE261-39" value="" style="endArrow=classic;startArrow=classic;html=1;fontSize=16;strokeWidth=2;" edge="1" parent="1">
          <mxGeometry width="50" height="50" relative="1" as="geometry">
            <mxPoint x="600" y="319.0000000000001" as="sourcePoint" />
            <mxPoint x="600" y="291" as="targetPoint" />
          </mxGeometry>
        </mxCell>
        <mxCell id="rwt07ugf8TW4-gDHE261-40" value="" style="endArrow=classic;startArrow=classic;html=1;fontSize=16;strokeWidth=2;" edge="1" parent="1">
          <mxGeometry width="50" height="50" relative="1" as="geometry">
            <mxPoint x="640" y="319.0000000000001" as="sourcePoint" />
            <mxPoint x="640" y="291" as="targetPoint" />
          </mxGeometry>
        </mxCell>
        <mxCell id="rwt07ugf8TW4-gDHE261-44" value="" style="endArrow=classic;startArrow=classic;html=1;fontSize=16;strokeWidth=2;" edge="1" parent="1">
          <mxGeometry width="50" height="50" relative="1" as="geometry">
            <mxPoint x="219.76" y="520" as="sourcePoint" />
            <mxPoint x="219.76" y="490" as="targetPoint" />
          </mxGeometry>
        </mxCell>
        <mxCell id="rwt07ugf8TW4-gDHE261-45" value="" style="endArrow=classic;startArrow=classic;html=1;fontSize=16;strokeWidth=2;" edge="1" parent="1">
          <mxGeometry width="50" height="50" relative="1" as="geometry">
            <mxPoint x="419.8" y="520" as="sourcePoint" />
            <mxPoint x="419.8" y="490" as="targetPoint" />
          </mxGeometry>
        </mxCell>
        <mxCell id="rwt07ugf8TW4-gDHE261-46" value="" style="endArrow=classic;startArrow=classic;html=1;fontSize=16;strokeWidth=2;" edge="1" parent="1">
          <mxGeometry width="50" height="50" relative="1" as="geometry">
            <mxPoint x="619.76" y="520" as="sourcePoint" />
            <mxPoint x="619.76" y="490" as="targetPoint" />
          </mxGeometry>
        </mxCell>
      </root>
    </mxGraphModel>
  </diagram>
</mxfile>
